<?xml version="1.0" encoding="UTF-8"?>
<!-- 镜心 · 孔子（春秋） · 水墨写意 -->
<svg xmlns="http://www.w3.org/2000/svg" viewBox="0 0 240 320" width="240" height="320" role="img" aria-label="孔子（春秋）">
  <defs>
    <filter id="rough" x="0" y="0" width="100%" height="100%">
      <feTurbulence baseFrequency="0.04" numOctaves="2" seed="2" />
      <feDisplacementMap in="SourceGraphic" scale="1.5" />
    </filter>
  </defs>
  <style>
    .ink { color: #1a1a1a; }
    .cinnabar { color: #a8322e; }
    .rice { color: #f5efe0; }
    .faint { color: #5a5a5a; }
    .face-bg { fill: #ebe3cf; }
    .frame { fill: none; stroke: #a8322e; stroke-width: 1.5; }
    text {
      font-family: '霞鹜文楷','LXGW WenKai','STKaiti','KaiTi',serif;
    }
  </style>

  <!-- 米色底 -->
  <rect width="240" height="320" fill="#ebe3cf"/>

  <!-- 朱砂外框（薄） -->
  <rect x="6" y="6" width="228" height="308" class="frame"/>

  <!-- 朝代 -->
  <text x="120" y="32" text-anchor="middle" font-size="14" letter-spacing="6" class="ink" fill="#5a5a5a">春秋</text>

  <!-- 折线分隔 -->
  <line x1="60" y1="46" x2="180" y2="46" stroke="#a8322e" stroke-width="0.5" opacity="0.4"/>

  <!-- 人物剪影（半圆肩+头） -->
  <g class="ink" filter="url(#rough)">
    <ellipse cx="120" cy="120" rx="28" ry="34" fill="#1a1a1a" opacity="0.9"/>
    <path d="M60 220 Q60 170 100 165 L140 165 Q180 170 180 220 L180 260 L60 260 Z" fill="#1a1a1a" opacity="0.92"/>
  </g>

  <!-- 意象物 -->
  <g class="ink" filter="url(#rough)">
    <path d="M80 230 Q80 195 100 195 Q120 195 120 230 Q120 195 140 195 Q160 195 160 230 Z" fill="currentColor" opacity="0.7"/><circle cx="98" cy="208" r="3" fill="var(--rice)"/><circle cx="142" cy="208" r="3" fill="var(--rice)"/>
  </g>

  <!-- 姓名 -->
  <text x="120" y="290" text-anchor="middle" font-size="26" letter-spacing="12" class="ink" fill="#1a1a1a">孔子</text>

  <!-- 印章 -->
  <g transform="translate(202,278)">
    <rect x="0" y="0" width="26" height="26" fill="#a8322e" rx="2"/>
    <text x="13" y="20" text-anchor="middle" font-size="18" fill="#f5efe0">镜</text>
  </g>
</svg>
